<svg width="640" height="640" xmlns="http://www.w3.org/2000/svg" class="bi bi-bootstrap-reboot">

 <g>
  <title>background</title>
  <rect fill="none" id="canvas_background" height="642" width="642" y="-1" x="-1"/>
 </g>
 <g>
  <title>Layer 1</title>
  <path stroke="null" id="svg_1" d="m46.26982,319a272.745,272.745 0 1 0 272.82475,-272.745a23.1275,23.1275 0 1 1 0,-46.255a319,319 0 1 1 -261.4205,136.0535l-26.437125,-23.007875a23.1275,23.1275 0 0 1 9.051625,-39.755375l100.485,-27.51375a23.1275,23.1275 0 0 1 29.029,25.240875l-13.2385,103.356a23.1275,23.1275 0 0 1 -38.1205,14.5145l-25.639625,-22.33a271.6285,271.6285 0 0 0 -46.574,152.442125l0.039875,0z"/>
  <path stroke="null" id="svg_2" d="m274.653675,465.604545l0,-97.043463l53.874907,0l51.404211,97.043463l45.090209,0l-56.482864,-103.151574c30.780759,-10.294568 48.96783,-37.952642 48.96783,-72.061978c0,-47.011862 -32.35926,-77.072001 -84.278199,-77.072001l-97.729768,0l0,252.285553l39.153675,0zm0,-128.682103l0,-90.729462l53.874907,0c30.231715,0 48.590362,17.123299 48.590362,45.2961c0,28.824791 -17.294875,45.433361 -47.560905,45.433361l-54.904364,0z"/>
 </g>
</svg>