<svg width="640" height="640" xmlns="http://www.w3.org/2000/svg">

 <g>
  <title>Layer 1</title>
  <g stroke="null">
   <path stroke="null" d="m558.375,41.8125a39.8125,39.8125 0 0 1 39.8125,39.8125l0,477.75a39.8125,39.8125 0 0 1 -39.8125,39.8125l-477.75,0a39.8125,39.8125 0 0 1 -39.8125,-39.8125l0,-477.75a39.8125,39.8125 0 0 1 39.8125,-39.8125l477.75,0zm-477.75,-39.8125a79.625,79.625 0 0 0 -79.625,79.625l0,477.75a79.625,79.625 0 0 0 79.625,79.625l477.75,0a79.625,79.625 0 0 0 79.625,-79.625l0,-477.75a79.625,79.625 0 0 0 -79.625,-79.625l-477.75,0z"/>
   <path stroke="null" d="m142.0955,428.19281a19.90625,19.90625 0 0 0 18.1545,11.74469l318.5,0a19.90625,19.90625 0 0 0 14.88987,-33.124l-159.25,-179.15625a19.90625,19.90625 0 0 0 -29.77975,0l-159.25,179.15625a19.90625,19.90625 0 0 0 -3.26462,21.37931z"/>
  </g>
 </g>
</svg>