<svg width="640" height="640" xmlns="http://www.w3.org/2000/svg">

 <g>
  <title>Layer 1</title>
  <g stroke="null">
   <path stroke="null" d="m20.90625,437.89731a19.90625,19.90625 0 0 1 19.90625,19.90625l0,99.53125a39.8125,39.8125 0 0 0 39.8125,39.8125l477.75002,0a39.8125,39.8125 0 0 0 39.8125,-39.8125l0,-99.53125a19.90625,19.90625 0 0 1 39.8125,0l0,99.53125a79.625,79.625 0 0 1 -79.625,79.625l-477.75002,0a79.625,79.625 0 0 1 -79.625,-79.625l0,-99.53125a19.90625,19.90625 0 0 1 19.90625,-19.90625z"/>
   <path stroke="null" d="m305.40639,89.37867a19.90625,19.90625 0 0 1 28.18725,0l119.43751,119.43751a19.90625,19.90625 0 0 1 -28.18725,28.18725l-85.43763,-85.47744l0,350.07133a19.90625,19.90625 0 0 1 -39.8125,0l0,-350.07133l-85.43763,85.47744a19.90625,19.90625 0 1 1 -28.18725,-28.18725l119.43751,-119.43751z"/>
  </g>
 </g>
</svg>