<svg width="640" height="640" xmlns="http://www.w3.org/2000/svg">
 <!-- Created with Method Draw - http://github.com/duopixel/Method-Draw/ -->

 <g>
  <title>background</title>
  <rect fill="none" id="canvas_background" height="642" width="642" y="-1" x="-1"/>
  <g display="none" overflow="visible" y="0" x="0" height="100%" width="100%" id="canvasGrid">
   <rect fill="url(#gridpattern)" stroke-width="0" y="0" x="0" height="100%" width="100%"/>
  </g>
 </g>
 <g>
  <title>Layer 1</title>
  <g stroke="null" id="svg_18">
   <path stroke="null" id="svg_15" d="m530.288764,446.473771c66.271665,-59.141909 102.894454,-126.153822 102.894454,-126.153822s-116.881243,-214.282279 -311.683314,-214.282279a273.813792,273.813792 0 0 0 -108.699556,22.908724l29.999519,30.038479a231.580703,231.580703 0 0 1 78.700037,-13.986789c82.596078,0 151.127447,45.505764 201.347421,95.725738a511.706082,511.706082 0 0 1 64.674288,79.596126c-2.259704,3.389556 -4.753171,7.129756 -7.597281,11.220599c-13.051739,18.700999 -32.337144,43.635664 -57.077007,68.375527c-6.428468,6.428468 -13.12966,12.779016 -20.142534,18.934761l27.583973,27.622934z"/>
   <path stroke="null" id="svg_16" d="m449.95239,366.137396a136.36145,136.36145 0 0 0 -174.308894,-174.308894l32.064421,32.064421a97.401036,97.401036 0 0 1 110.219012,110.219012l32.025461,32.025461zm-114.660499,50.609578l32.025461,32.025461a136.36145,136.36145 0 0 1 -174.308894,-174.308894l32.064421,32.064421a97.401036,97.401036 0 0 0 110.219012,110.219012z"/>
   <path stroke="null" id="svg_17" d="m140.333977,221.750101c-7.012875,6.233666 -13.753026,12.545253 -20.181495,18.973722a511.706082,511.706082 0 0 0 -64.674288,79.596126l7.597281,11.220599c13.051739,18.700999 32.337144,43.635664 57.077007,68.375527c50.219974,50.219974 118.790303,95.725738 201.347421,95.725738c27.895657,0 54.154976,-5.181735 78.700037,-14.025749l29.999519,30.07744a273.852752,273.852752 0 0 1 -108.699556,22.908724c-194.802072,0 -311.683314,-214.282279 -311.683314,-214.282279s36.583829,-67.050873 102.894454,-126.153822l27.583973,27.622934l0.03896,-0.03896zm401.097465,346.163281l-467.524972,-467.524972l27.583973,-27.583973l467.524972,467.524972l-27.583973,27.583973z"/>
  </g>
 </g>
</svg>