<svg width="640" height="640" xmlns="http://www.w3.org/2000/svg" class="icon">
 <!-- Created with Method Draw - http://github.com/duopixel/Method-Draw/ -->

 <g>
  <title>background</title>
  <rect fill="none" id="canvas_background" height="642" width="642" y="-1" x="-1"/>
 </g>
 <g>
  <title>Layer 1</title>
  <defs>
   <style type="text/css"/>
  </defs>
  <path stroke="null" stroke-width="9" id="svg_5" fill="#227CE5" d="m249.673627,623.959525s56.749664,-102.147984 86.20644,-306.367493s134.57977,-551.568528 206.057822,25.919286c0,0 33.644942,221.651949 82.018273,280.448206l-374.282535,0z"/>
  <path stroke="null" stroke-width="9" id="svg_6" fill="#2571CB" d="m541.937889,343.511318c-33.08652,-267.373876 -73.362727,-336.491973 -110.078992,-313.325177c21.429455,43.504643 42.440093,131.354967 61.217043,282.741949c0,0 33.644942,221.651949 82.018273,280.448206l-311.041211,0c-8.655545,20.414305 -14.379374,30.583229 -14.379374,30.583229l374.282535,0c-48.37333,-58.796257 -82.018273,-280.448206 -82.018273,-280.448206z"/>
  <path stroke="null" stroke-width="9" id="svg_7" fill="#202D47" d="m623.956162,639.251139l-374.282535,0c-5.025801,0 -9.702587,-2.981865 -12.145685,-7.798723c-2.443097,-4.816859 -2.373295,-10.70413 0.209408,-15.44453c0.279211,-0.535207 14.169965,-25.919286 31.341451,-75.158284c15.915035,-45.721927 38.112321,-122.027082 52.980314,-225.627769c9.842193,-68.353516 26.245847,-140.988684 43.905952,-194.203502c24.57058,-74.240787 50.397611,-110.328997 78.877147,-110.328997l0.418817,0c12.913515,0.152916 24.849792,7.722265 35.669223,22.402215c9.77239,13.227246 18.637344,32.341764 27.153283,58.337509c17.79971,53.979399 33.784548,138.006819 47.675302,249.78852c9.213968,60.631251 41.183643,227.080473 78.597936,272.496567c3.699548,4.511026 4.606984,10.933504 2.373295,16.438485c-2.233689,5.504981 -7.25949,9.098511 -12.77391,9.098511zm-351.10801,-30.583229l324.582951,0c-15.915035,-31.041977 -31.341451,-79.057646 -46.139641,-143.205968c-14.449177,-62.619161 -23.034919,-118.815843 -23.104722,-119.427508c0,-0.152916 -0.069803,-0.305832 -0.069803,-0.458748c-13.611543,-109.793791 -29.177564,-191.833302 -46.279247,-243.748332c-14.658585,-44.498598 -28.619142,-60.401877 -36.855871,-60.554793l-0.069803,0c-10.540221,0 -30.643423,23.549086 -52.701103,90.144066c-17.03188,51.53274 -32.946915,122.027082 -42.579699,188.545604c-15.426416,106.811926 -38.321729,185.56374 -54.864989,232.814828c-8.446137,24.237209 -16.054641,42.81652 -21.918075,55.89085z"/>
  <path stroke="null" stroke-width="9" id="svg_8" fill="#2DCD54" d="m133.801004,623.959525s45.162402,-87.850324 68.616138,-263.627431s107.147275,-474.728166 164.036545,22.325757c0,0 26.80427,190.762889 65.265604,241.378132l-297.918288,0l0,-0.076458z"/>
  <path stroke="null" stroke-width="9" id="svg_9" fill="#31B952" d="m366.453687,382.581393c-28.06072,-244.589371 -62.543296,-296.427943 -93.116916,-265.003676c15.705627,39.987571 31.132042,113.693152 44.952994,234.420447c0,0 26.80427,190.762889 65.265604,241.378132l-236.701245,0c-7.817912,20.414305 -13.053121,30.583229 -13.053121,30.583229l297.918288,0c-38.531137,-50.615243 -65.265604,-241.378132 -65.265604,-241.378132z"/>
  <path stroke="null" stroke-width="9" id="svg_10" fill="#202D47" d="m431.719291,639.251139l-297.918288,0c-4.955998,0 -9.562982,-2.905407 -12.075882,-7.569349c-2.5129,-4.663942 -2.5129,-10.474756 -0.139606,-15.215156c0.139606,-0.229374 11.168446,-22.019925 24.849792,-64.60707c12.634304,-39.299449 30.224606,-104.824016 42.09108,-193.821211c7.817912,-58.872715 20.940836,-121.415418 34.971195,-167.366719c20.173005,-65.983316 41.044038,-96.719461 65.614618,-96.719461l0.349014,0c27.921114,0.305832 43.487135,40.752152 52.770906,71.182465c14.169965,46.486508 26.943875,118.892301 37.972715,215.229471c7.329292,52.067947 32.667704,194.891624 62.194282,233.655867c3.490139,4.587484 4.188167,10.933504 1.884675,16.285569c-2.233689,5.504981 -7.119884,8.945594 -12.564501,8.945594zm-275.651199,-30.583229l250.591999,0c-12.28529,-26.989699 -24.221566,-67.436019 -35.59942,-120.880211c-11.51746,-53.979399 -18.358133,-102.377358 -18.427935,-102.836106c0,-0.152916 -0.069803,-0.305832 -0.069803,-0.458748c-10.819432,-94.425718 -23.174525,-164.92006 -36.786068,-209.571574c-15.147204,-49.621288 -26.455256,-50.309411 -26.594861,-50.309411c-4.467378,0 -20.103202,13.609537 -39.159363,75.846407c-13.54174,44.269223 -26.176044,104.824016 -33.854351,162.014654c-16.962077,127.608521 -45.092599,209.265742 -60.100198,246.19499z"/>
  <path stroke="null" stroke-width="9" id="svg_11" fill="#FFFFFF" d="m19.324436,623.959525s37.135082,-56.196683 56.40065,-168.666506s88.021312,-303.69146 134.789178,14.221201c0,0 21.987877,122.027082 53.678342,154.368846l-244.868171,0l0,0.076458z"/>
  <path stroke="null" stroke-width="9" id="svg_12" fill="#FFFFFF" d="m19.324436,623.959525s37.135082,-56.196683 56.40065,-168.666506s88.021312,-303.69146 134.789178,14.221201c0,0 21.987877,122.027082 53.678342,154.368846l-244.868171,0l0,0.076458z"/>
  <path stroke="null" stroke-width="9" id="svg_13" fill="#EEEEEE" d="m210.584068,469.51422c-22.406694,-152.151562 -49.839189,-187.704566 -74.479572,-171.036706c11.377854,27.142615 22.476497,71.947045 32.597901,140.453477c0,0 21.987877,122.027082 53.678342,154.368846l-187.071465,0c-9.213968,20.414305 -15.984838,30.583229 -15.984838,30.583229l244.868171,0c-31.620662,-32.265306 -53.608539,-154.368846 -53.608539,-154.368846z"/>
  <path stroke="null" stroke-width="9" id="svg_14" fill="#202D47" d="m264.192607,639.251139l-244.868171,0c-5.235209,0 -10.051601,-3.211239 -12.424896,-8.33393c-2.373295,-5.122691 -1.954478,-11.239337 1.116845,-15.903279c0.698028,-1.070413 35.739026,-55.89085 54.027356,-162.54986c6.561462,-38.229036 17.450696,-78.828272 29.247367,-108.64692c17.03188,-43.275268 35.320209,-64.377696 55.842228,-64.377696l0.418817,0c9.493179,0.152916 18.28833,4.816859 26.245847,13.991827c6.840673,7.875181 13.053121,19.114518 18.986358,34.253216c11.866473,30.277396 22.476497,77.069736 31.620662,139.15369c0.558422,2.905407 5.933237,31.7301 14.658585,63.613116c15.496218,56.502515 28.409734,75.846407 34.761787,82.345343c4.188167,4.281652 5.584223,10.933504 3.490139,16.820776c-2.233689,5.810813 -7.399095,9.633717 -13.122924,9.633717zm-220.29759,-30.583229l193.21411,0c-8.655545,-17.279524 -16.962077,-40.522778 -24.919594,-69.653303c-9.562982,-34.864881 -15.077402,-65.218735 -15.28681,-66.518522c0,-0.152916 -0.069803,-0.38229 -0.069803,-0.535207c-8.795151,-59.713754 -18.776949,-104.212352 -29.735987,-132.272464c-9.144165,-23.319712 -16.822471,-29.665732 -19.893794,-29.665732l-0.069803,0c-4.188167,0 -15.915035,9.557259 -30.224606,45.874843c-10.959037,27.907196 -21.220047,66.059774 -27.432495,102.224442c-12.564501,73.246833 -32.458295,123.326869 -45.581219,150.545943z"/>
  <path stroke="null" stroke-width="9" id="svg_4" fill="#000000" d="m624.933401,639.709887l-609.797132,0c-7.678306,0 -13.960557,-6.881226 -13.960557,-15.291614l0,-607.230004c0,-8.410388 6.282251,-15.291614 13.960557,-15.291614s13.960557,6.881226 13.960557,15.291614l0,591.93839l595.766772,0c7.678306,0 13.960557,6.881226 13.960557,15.291614s-6.212448,15.291614 -13.890754,15.291614z"/>
 </g>
</svg>