<svg width="640" height="640" xmlns="http://www.w3.org/2000/svg" class="bi bi-folder2-open">

 <g>
  <title>background</title>
  <rect fill="none" id="canvas_background" height="642" width="642" y="-1" x="-1"/>
 </g>
 <g>
  <title>Layer 1</title>
  <path stroke="null" id="svg_1" d="m35.285621,122.844202a60.844202,60.844202 0 0 1 60.844202,-60.844202l112.115583,0c38.859164,0 71.39053,22.715169 93.740634,48.026357c16.630749,18.82114 36.709335,33.099246 57.801992,33.099246l182.532606,0a60.844202,60.844202 0 0 1 60.844202,60.844202l0,25.960193c23.120797,10.749142 38.129033,35.533014 34.721758,62.710091l-25.960193,207.843794a101.407003,101.407003 0 0 1 -100.717436,88.832535l-384.00804,0a101.407003,101.407003 0 0 1 -100.63631,-88.832535l-25.960193,-207.843794a60.844202,60.844202 0 0 1 34.681195,-62.710091l0,-107.085796zm40.562801,101.407003l486.753616,0l0,-20.281401a20.281401,20.281401 0 0 0 -20.281401,-20.281401l-182.532606,0c-39.102541,0 -69.36239,-25.514002 -88.18353,-46.809473c-18.334386,-20.768154 -40.806178,-34.31613 -63.359096,-34.31613l-112.115583,0a20.281401,20.281401 0 0 0 -20.281401,20.281401l0,101.407003zm-14.886548,40.562801a20.281401,20.281401 0 0 0 -20.119149,22.796294l25.960193,207.843794a60.844202,60.844202 0 0 0 60.398011,53.299521l384.048603,0a60.844202,60.844202 0 0 0 60.398011,-53.299521l25.960193,-207.843794a20.281401,20.281401 0 0 0 -20.119149,-22.796294l-516.526713,0z"/>
 </g>
</svg>