<svg width="640" height="640" xmlns="http://www.w3.org/2000/svg" class="icon">
 <defs>
  <style type="text/css"/>
 </defs>
 <g>
  <title>background</title>
  <rect fill="none" id="canvas_background" height="642" width="642" y="-1" x="-1"/>
 </g>
 <g>
  <title>Layer 1</title>
  <path stroke="null" id="svg_1" d="m637.532194,362.441644c0,-14.968749 -15.90825,-29.937499 -31.816501,-29.937499c-19.089901,0 -31.816501,14.968749 -31.816501,29.937499c0,20.956249 -6.3633,80.831247 -34.998151,110.768745c-15.90825,14.968749 -34.998151,20.956249 -60.451352,20.956249c-44.543101,0 -76.359602,-113.762495 -101.812803,-194.593742c-31.816501,-116.756245 -63.633002,-224.53124 -146.355904,-224.53124c-117.721054,0 -171.809105,170.643743 -206.807256,281.412488c-6.3633,23.949999 -12.7266,44.906248 -19.089901,56.881248c-6.3633,14.968749 3.18165,32.931249 19.089901,38.918748c15.90825,5.9875 34.998151,-2.99375 41.361451,-17.962499c6.3633,-14.968749 12.7266,-35.924998 22.271551,-62.868747c22.271551,-80.831247 73.177952,-236.50624 143.174254,-236.50624c34.998151,0 66.814652,107.774995 89.086203,179.624992c34.998151,116.756245 69.996302,239.49999 162.264155,239.49999c41.361451,0 76.359602,-11.974999 101.812803,-38.918748c57.269702,-56.881248 54.088052,-149.687494 54.088052,-152.681244z"/>
  <text stroke="null" transform="matrix(13.189016041846457,0,0,14.89314674671914,-2861.0160251348766,-6850.544049560904) " xml:space="preserve" text-anchor="start" font-family="Helvetica, Arial, sans-serif" font-size="24" id="svg_2" y="479.873993" x="247.409283" fill-opacity="null" stroke-opacity="null" stroke-width="0" fill="#000000">S</text>
 </g>
</svg>