<svg width="640" height="640" xmlns="http://www.w3.org/2000/svg" class="bi bi-cursor-text">

 <g>
  <title>background</title>
  <rect fill="none" id="canvas_background" height="642" width="642" y="-1" x="-1"/>
 </g>
 <g>
  <title>Layer 1</title>
  <path stroke="null" id="svg_1" d="m173.297363,26a24.5,24.5 0 0 1 24.5,-24.5c42.238,0 77.077,14.063 100.94,27.734c8.526,4.851 15.729,9.702 21.56,14.014c5.831,-4.312 13.034,-9.163 21.56,-14.014a204.085,204.085 0 0 1 100.94,-27.734a24.5,24.5 0 0 1 0,49c-31.262,0 -57.673,10.437 -76.636,21.266a171.01,171.01 0 0 0 -21.364,14.406l0,209.328l24.5,0a24.5,24.5 0 0 1 0,49l-24.5,0l0,209.328c4.9,3.92 12.152,9.163 21.364,14.406c18.963,10.829 45.374,21.266 76.636,21.266a24.5,24.5 0 0 1 0,49a204.085,204.085 0 0 1 -100.94,-27.734a223.489,223.489 0 0 1 -21.56,-13.916a223.489,223.489 0 0 1 -21.56,13.965a204.085,204.085 0 0 1 -100.94,27.734a24.5,24.5 0 0 1 0,-49c31.262,0 57.673,-10.437 76.636,-21.266c9.212,-5.243 16.415,-10.486 21.364,-14.406l0,-209.377l-24.5,0a24.5,24.5 0 0 1 0,-49l24.5,0l0,-209.328a171.01,171.01 0 0 0 -21.364,-14.406a155.134,155.134 0 0 0 -76.636,-21.266a24.5,24.5 0 0 1 -24.5,-24.5zm164.248,66.395zm-34.496,455.21z"/>
 </g>
</svg>