<svg width="640" height="640" xmlns="http://www.w3.org/2000/svg">
 <!-- Created with Method Draw - http://github.com/duopixel/Method-Draw/ -->

 <g>
  <title>background</title>
  <rect fill="none" id="canvas_background" height="642" width="642" y="-1" x="-1"/>
  <g display="none" overflow="visible" y="0" x="0" height="100%" width="100%" id="canvasGrid">
   <rect fill="url(#gridpattern)" stroke-width="0" y="0" x="0" height="100%" width="100%"/>
  </g>
 </g>
 <g>
  <title>Layer 1</title>
  <g stroke="null" id="svg_11">
   <path stroke="null" id="svg_9" d="m557.905175,42.457652a39.637165,39.637165 0 0 1 39.637165,39.637165l0,475.645976a39.637165,39.637165 0 0 1 -39.637165,39.637165l-475.645976,0a39.637165,39.637165 0 0 1 -39.637165,-39.637165l0,-475.645976a39.637165,39.637165 0 0 1 39.637165,-39.637165l475.645976,0zm-475.645976,-39.637165a79.274329,79.274329 0 0 0 -79.274329,79.274329l0,475.645976a79.274329,79.274329 0 0 0 79.274329,79.274329l475.645976,0a79.274329,79.274329 0 0 0 79.274329,-79.274329l0,-475.645976a79.274329,79.274329 0 0 0 -79.274329,-79.274329l-475.645976,0z"/>
   <path stroke="null" id="svg_10" d="m187.139137,186.974754a19.818582,19.818582 0 0 1 28.063113,0l104.879938,104.919575l104.879938,-104.919575a19.818582,19.818582 0 0 1 28.063113,28.063113l-104.919575,104.879938l104.919575,104.879938a19.818582,19.818582 0 0 1 -28.063113,28.063113l-104.879938,-104.919575l-104.879938,104.919575a19.818582,19.818582 0 0 1 -28.063113,-28.063113l104.919575,-104.879938l-104.919575,-104.879938a19.818582,19.818582 0 0 1 0,-28.063113z"/>
  </g>
 </g>
</svg>