<svg width="640" height="640" xmlns="http://www.w3.org/2000/svg" class="bi bi-zoom-in">
 <g>
  <title>background</title>
  <rect x="-1" y="-1" width="642" height="642" id="canvas_background" fill="none"/>
 </g>

 <g>
  <title>Layer 1</title>
  <path fill-rule="evenodd" d="m262.229036,468.788246a212.810678,212.387598 0 1 0 0,-424.775195a212.810678,212.387598 0 0 0 0,424.775195zm251.503528,-212.387598a251.503528,251.003524 0 1 1 -503.007057,0a251.503528,251.003524 0 0 1 503.007057,0z" id="svg_1" stroke="null"/>
  <path d="m402.912965,462.729783c1.196978,1.59597 2.473754,3.112142 3.910127,4.588414l153.612136,153.612136a39.899256,39.899256 0 0 0 56.457447,-56.417548l-153.612136,-153.612136a40.178551,40.178551 0 0 0 -4.588414,-3.989926a260.861336,260.861336 0 0 1 -55.77916,55.858958l0,-0.039899l0,0.000001z" id="svg_2" stroke="null"/>
  <rect id="svg_4" height="30" width="180" y="238" x="175" stroke-opacity="null" stroke-width="null" stroke="null" fill="#000000"/>
  <ellipse ry="15" rx="15" id="svg_6" cy="253" cx="175" fill-opacity="null" stroke-opacity="null" stroke-width="null" stroke="null" fill="#000000"/>
  <ellipse ry="15" rx="15" id="svg_7" cy="253" cx="354.880997" fill-opacity="null" stroke-opacity="null" stroke-width="null" stroke="null" fill="#000000"/>
 </g>
</svg>