<svg width="640" height="640" xmlns="http://www.w3.org/2000/svg" class="bi bi-zoom-in">

 <g>
  <title>background</title>
  <rect fill="none" id="canvas_background" height="642" width="642" y="-1" x="-1"/>
 </g>
 <g>
  <title>Layer 1</title>
  <path stroke="null" id="svg_1" d="m262.229036,468.788246a212.810678,212.387598 0 1 0 0,-424.775195a212.810678,212.387598 0 0 0 0,424.775195zm251.503528,-212.387598a251.503528,251.003524 0 1 1 -503.007057,0a251.503528,251.003524 0 0 1 503.007057,0z" fill-rule="evenodd"/>
  <path stroke="null" id="svg_2" d="m402.912965,462.729783c1.196978,1.59597 2.473754,3.112142 3.910127,4.588414l153.612136,153.612136a39.899256,39.899256 0 0 0 56.457447,-56.417548l-153.612136,-153.612136a40.178551,40.178551 0 0 0 -4.588414,-3.989926a260.861336,260.861336 0 0 1 -55.77916,55.858958l0,-0.039899z"/>
  <path stroke="null" id="svg_3" d="m265.566831,160.565365a14.428772,14.428772 0 0 1 14.428772,14.428772l0,72.14386l72.14386,0a14.428772,14.428772 0 0 1 0,28.857544l-72.14386,0l0,72.14386a14.428772,14.428772 0 0 1 -28.857544,0l0,-72.14386l-72.14386,0a14.428772,14.428772 0 0 1 0,-28.857544l72.14386,0l0,-72.14386a14.428772,14.428772 0 0 1 14.428772,-14.428772z" fill-rule="evenodd"/>
 </g>
</svg>